<svg id="Layer_1" data-name="Layer 1" xmlns="http://www.w3.org/2000/svg" xmlns:xlink="http://www.w3.org/1999/xlink" viewBox="0 0 500 500"><defs><style>.cls-1,.cls-10,.cls-11,.cls-12,.cls-13,.cls-14,.cls-15,.cls-16,.cls-17,.cls-2,.cls-3,.cls-4,.cls-5,.cls-6,.cls-7,.cls-8,.cls-9{stroke:#231f20;stroke-miterlimit:10;stroke-width:5px;}.cls-1{fill:url(#linear-gradient);}.cls-2{fill:url(#linear-gradient-2);}.cls-3{fill:url(#linear-gradient-3);}.cls-4{fill:url(#linear-gradient-4);}.cls-5{fill:url(#linear-gradient-5);}.cls-6{fill:url(#linear-gradient-6);}.cls-7{fill:url(#linear-gradient-7);}.cls-8{fill:url(#linear-gradient-8);}.cls-9{fill:url(#linear-gradient-9);}.cls-10{fill:url(#linear-gradient-10);}.cls-11{fill:url(#linear-gradient-11);}.cls-12{fill:url(#linear-gradient-12);}.cls-13{fill:url(#linear-gradient-13);}.cls-14{fill:url(#linear-gradient-14);}.cls-15{fill:url(#linear-gradient-15);}.cls-16{fill:url(#linear-gradient-16);}.cls-17{fill:url(#linear-gradient-17);}</style><linearGradient id="linear-gradient" x1="138.89" y1="197.38" x2="292.24" y2="462.99" gradientTransform="matrix(0.32, -0.95, -0.95, -0.32, 548.7, 506.83)" gradientUnits="userSpaceOnUse"><stop offset="0" stop-color="#f04b4c"/><stop offset="1" stop-color="#faf17e"/></linearGradient><linearGradient id="linear-gradient-2" x1="197.56" y1="238.63" x2="309.09" y2="431.8" xlink:href="#linear-gradient"/><linearGradient id="linear-gradient-3" x1="213.77" y1="203.24" x2="351.87" y2="442.44" xlink:href="#linear-gradient"/><linearGradient id="linear-gradient-4" x1="112.12" y1="-10.59" x2="440.58" y2="558.31" xlink:href="#linear-gradient"/><linearGradient id="linear-gradient-5" x1="143.56" y1="172.44" x2="343.4" y2="518.58" xlink:href="#linear-gradient"/><linearGradient id="linear-gradient-6" x1="96.18" y1="26.58" x2="345.42" y2="458.27" xlink:href="#linear-gradient"/><linearGradient id="linear-gradient-7" x1="174.27" y1="97.87" x2="422.66" y2="528.09" xlink:href="#linear-gradient"/><linearGradient id="linear-gradient-8" x1="287.82" y1="256.13" x2="375.62" y2="408.22" xlink:href="#linear-gradient"/><linearGradient id="linear-gradient-9" x1="212.63" y1="255.63" x2="408.81" y2="595.42" xlink:href="#linear-gradient"/><linearGradient id="linear-gradient-10" x1="231.52" y1="224.36" x2="479.19" y2="653.34" xlink:href="#linear-gradient"/><linearGradient id="linear-gradient-11" x1="258.36" y1="207.19" x2="507.97" y2="639.52" xlink:href="#linear-gradient"/><linearGradient id="linear-gradient-12" x1="225.07" y1="111.04" x2="474.46" y2="543" xlink:href="#linear-gradient"/><linearGradient id="linear-gradient-13" x1="217.02" y1="248.85" x2="409.7" y2="582.58" xlink:href="#linear-gradient"/><linearGradient id="linear-gradient-14" x1="249.91" y1="241.69" x2="446.75" y2="582.62" xlink:href="#linear-gradient"/><linearGradient id="linear-gradient-15" x1="252.35" y1="182.35" x2="452.85" y2="529.62" xlink:href="#linear-gradient"/><linearGradient id="linear-gradient-16" x1="312.22" y1="229.23" x2="514.83" y2="580.15" xlink:href="#linear-gradient"/><linearGradient id="linear-gradient-17" x1="343.39" y1="119.88" x2="111.08" y2="522.27" gradientTransform="matrix(1, 0, 0, 1, 0, 0)" xlink:href="#linear-gradient"/></defs><path class="cls-1" d="M211.29,105.37q-4.24,13.89-8.21,27.85a8.14,8.14,0,0,0,4.8,9.61Q221.44,148,235.09,153c10.15-17.06,20.69-34.11,31.4-51.18C247.92,103.16,229.46,104.43,211.29,105.37Z"/><path class="cls-2" d="M278.24,66.62c-18.64,1.48-37.34,2.95-55.91,4.2q-5.73,17.21-11,34.55,24.17,8.73,48.45,17,9.09-27.94,18.5-55.77Z"/><path class="cls-3" d="M290.26,31.52c-18.52,1.66-37.25,3.41-56,5q-6.17,17.07-11.91,34.26l49,16.34q9.3-27.87,18.92-55.64Z"/><path class="cls-4" d="M281.83,12.77Q268,8.52,254,4.55a8.14,8.14,0,0,0-9.61,4.81q-5.22,13.56-10.14,27.2,24.54,7.53,49,15.46C282.64,38.84,282.16,25.73,281.83,12.77Z"/><path class="cls-5" d="M246.13,117.71q-5.62,17.6-11,35.26,17.06,6.17,34.26,11.9c10.68-17.13,21.54-34.23,32.36-51.31-18.63,1.45-37.22,2.9-55.58,4.15Z"/><path class="cls-6" d="M257.6,82.58q-5.84,17.53-11.47,35.13,24.25,8.42,48.65,16.42,9.44-27.87,18.66-55.81c-18.55,1.39-37.23,2.88-55.84,4.26Z"/><path class="cls-7" d="M257.6,82.58l49,16.34Q315.91,71,325,43c-18.28,1.39-36.85,3-55.51,4.57q-6.06,17.46-11.9,35Z"/><path class="cls-8" d="M318.27,63.66c-.68-13.3-1.34-26.61-1.89-39.85q-17.2-5.74-34.55-11Q275.56,30.15,269.5,47.6,294,55.43,318.27,63.66Z"/><path class="cls-9" d="M281.11,129.61l-11.76,35.26q17.2,5.74,34.55,11C315,158.93,326.14,142,337,125.15,318.32,126.59,299.64,128.15,281.11,129.61Z"/><path class="cls-10" d="M281.11,129.61q24.36,8.12,48.85,15.82,9.68-27.45,18.6-55.15c-18.44,1.21-37.07,2.64-55.69,4.06l-11.76,35.27Z"/><path class="cls-11" d="M341.87,110.68q9.21-27.62,17.66-55.47c-18,1-36.38,2.41-54.9,3.86L292.87,94.34Z"/><path class="cls-12" d="M304.63,59.07Q329,67.2,353.19,75.73q-1.28-19.92-2.54-40-17.07-6.16-34.27-11.9L304.63,59.07Z"/><path class="cls-13" d="M303.9,175.91q13.88,4.25,27.85,8.22a8.14,8.14,0,0,0,9.61-4.81q5.2-13.55,10.14-27.2-6.44-9.36-12.93-19-11.16,3.92-22.34,7.91Q310.17,158.53,303.9,175.91Z"/><path class="cls-14" d="M316.23,141.08q17.59,5.63,35.27,11,6.17-17.06,11.9-34.26-6.58-9.64-13.16-19.45-11,3.8-22.11,7.69Q322.3,123.62,316.23,141.08Z"/><path class="cls-15" d="M328.13,106.1l35.27,11.76q5.73-17.2,11-34.55-6.62-9.9-13.18-19.87-10.72,3.7-21.65,7.54Q334,88.57,328.13,106.1Z"/><path class="cls-16" d="M374.44,83.31q4.24-13.87,8.22-27.85a8.14,8.14,0,0,0-4.81-9.61q-13.56-5.2-27.2-10.14-5.41,17.67-11,35.27Q357.06,77,374.44,83.31Z"/><path class="cls-17" d="M415.64,163.08h0c-9-1.35-26,.69-69.52,33.82a18.35,18.35,0,0,1-16.53,2.93l-70-21.76c-31.93-10.82-74.15,4.67-103.43,21.73-23.63,13.75-69.92,46.59-50.45,65.82,14.3,14.13,48.48-7.1,90.82-13.51,10.5-1.58,16.18-1.06,19.09-.34C204.79,293.31,86.18,439.33,57.79,473.19c-8.35,10,.93,24.87,13.55,21.77,60.45-14.83,110.24-58.17,146.08-99.08,32.57-.65,43.75,5.32,45.31,7.82,4.49,7.21.85,28.49-1.55,42.57-3.54,20.7-6.34,37.05,4.39,45.94,5.71,4.73,13.2,4.84,19.82,1.38,20.82-10.88,58.4-77.79,55.46-112.39-2.43-28.55-44.17-45.86-71.43-54.57,8.5-12.88,17.41-24.56,23.85-54.54,18.31,4.35,45.39,9.93,59,7.89,14.73-2.2,34.45-23.9,48.39-41.72,11.24-14.36,30.09-40.85,30.09-57,0-9.52-6.06-16.83-15.07-18.18Z"/></svg>